<svg width="40" height="41" viewBox="0 0 40 41" fill="none" xmlns="http://www.w3.org/2000/svg">
<path d="M15.3473 24.8001C13.8666 24.8001 12.686 26.0007 12.686 27.4815C12.686 28.9622 13.8866 30.1428 15.3473 30.1428C16.828 30.1428 18.0286 28.9422 18.0286 27.4815C18.0286 26.0007 16.828 24.8001 15.3473 24.8001Z" fill="white"/>
<path d="M28.3941 0.944458H11.6258C4.34216 0.944458 0 5.28662 0 12.5702V29.3186C0 36.6222 4.34216 40.9644 11.6258 40.9644H28.3741C35.6578 40.9644 39.9999 36.6222 39.9999 29.3386V12.5702C40.0199 5.28662 35.6778 0.944458 28.3941 0.944458ZM30.2551 16.5522C30.2551 17.7728 29.7348 18.8534 28.8544 19.4937C28.2941 19.8939 27.6138 20.114 26.8934 20.114C26.4732 20.114 26.053 20.034 25.6128 19.8939L21.0305 18.3731C21.0105 18.3731 20.9704 18.3531 20.9504 18.3331V27.4577C20.9504 30.5392 18.4292 33.0605 15.3476 33.0605C12.2661 33.0605 9.74485 30.5392 9.74485 27.4577C9.74485 24.3761 12.2661 21.8549 15.3476 21.8549C16.3281 21.8549 17.2286 22.135 18.029 22.5552V12.9905C18.029 11.7699 18.5492 10.6893 19.4297 10.049C20.3301 9.40868 21.5107 9.2486 22.6713 9.64879L27.2536 11.1696C28.9744 11.7498 30.2751 13.5507 30.2751 15.3516V16.5522H30.2551Z" fill="white"/>
</svg>
