<svg width="32" height="32" viewBox="0 0 32 32" fill="none" xmlns="http://www.w3.org/2000/svg">
<path fill-rule="evenodd" clip-rule="evenodd" d="M16 32C8.45752 32 4.68629 32 2.34315 29.6568C-2.38419e-07 27.3138 0 23.5424 0 16C0 8.45752 -2.38419e-07 4.68629 2.34315 2.34315C4.68629 -2.38419e-07 8.45752 0 16 0C23.5424 0 27.3138 -2.38419e-07 29.6568 2.34315C32 4.68629 32 8.45752 32 16C32 23.5424 32 27.3138 29.6568 29.6568C27.3138 32 23.5424 32 16 32ZM22.4485 11.1515C22.9171 11.6201 22.9171 12.3799 22.4485 12.8485L14.4485 20.8485C13.9798 21.3171 13.2202 21.3171 12.7515 20.8485L9.55147 17.6485C9.08285 17.1798 9.08285 16.4202 9.55147 15.9515C10.0201 15.4829 10.7799 15.4829 11.2485 15.9515L13.6 18.3029L20.7515 11.1515C21.2202 10.6828 21.9798 10.6828 22.4485 11.1515Z" fill="#1C274C"/>
</svg>
