<svg width="44" height="45" viewBox="0 0 44 45" fill="none" xmlns="http://www.w3.org/2000/svg">
<path d="M27 17.5L17 27.5M17 17.5L27 27.5M42 22.5C42 31.928 42 36.6422 39.071 39.571C36.1422 42.5 31.428 42.5 22 42.5C12.5719 42.5 7.85786 42.5 4.92894 39.571C2 36.6422 2 31.928 2 22.5C2 13.0719 2 8.35786 4.92894 5.42894C7.85786 2.5 12.5719 2.5 22 2.5C31.428 2.5 36.1422 2.5 39.071 5.42894C41.0186 7.37642 41.6712 10.1131 41.8898 14.5" stroke="#424A5E" stroke-opacity="0.5" stroke-width="3.75" stroke-linecap="round"/>
</svg>
