<svg width="40" height="40" viewBox="0 0 40 40" fill="none" xmlns="http://www.w3.org/2000/svg">
<path fill-rule="evenodd" clip-rule="evenodd" d="M4.7052 7.23885C4.7052 6.23938 5.51544 5.42914 6.51491 5.42914H24.612C25.6115 5.42914 26.4218 6.23938 26.4218 7.23885V32.5748C26.4218 33.5743 25.6115 34.3845 24.612 34.3845H6.51491C5.51544 34.3845 4.7052 33.5743 4.7052 32.5748V7.23885Z" fill="#56ACE0"/>
<path d="M30.0412 32.5748V8.54798L36.0518 10.1585C37.0173 10.4172 37.5902 11.4095 37.3314 12.375L30.7741 36.8476C30.5153 37.813 29.5231 38.386 28.5576 38.1272L26.6386 37.6131C28.6332 36.8101 30.0412 34.8569 30.0412 32.5748Z" fill="#FFC10D"/>
<path fill-rule="evenodd" clip-rule="evenodd" d="M0 5.42914C0 2.43072 2.43072 0 5.42914 0H23.5263C25.5754 0 27.3594 1.13527 28.2836 2.81115L35.9029 4.85271C38.7992 5.62877 40.5178 8.60576 39.7418 11.502L33.1843 35.9747C32.4083 38.871 29.4314 40.5897 26.5351 39.8137L13.0272 36.1942H5.42914C2.43072 36.1942 0 33.7636 0 30.7651V5.42914ZM28.9554 30.7651V6.73827L34.966 8.34882C35.9315 8.6075 36.5044 9.59982 36.2456 10.5652L29.6883 35.0378C29.4295 36.0033 28.4373 36.5763 27.4718 36.3175L25.5528 35.8033C27.5474 35.0004 28.9554 33.0472 28.9554 30.7651ZM5.42914 3.61942C4.42967 3.61942 3.61943 4.42967 3.61943 5.42914V30.7651C3.61943 31.7646 4.42967 32.5748 5.42914 32.5748H23.5263C24.5258 32.5748 25.336 31.7646 25.336 30.7651V5.42914C25.336 4.42967 24.5258 3.61942 23.5263 3.61942H5.42914Z" fill="#424A5D"/>
</svg>
