<svg width="57" height="58" viewBox="0 0 57 58" fill="none" xmlns="http://www.w3.org/2000/svg">
<path d="M55.7034 26.3191C55.5665 25.8453 55.2314 25.4932 54.8123 25.2934V22.2638C54.8123 18.5325 52.0779 15.4313 48.4834 14.7773L43.2568 4.33507C43.1581 4.13835 43.0208 3.96289 42.8527 3.81888C42.6847 3.67487 42.4893 3.56517 42.2779 3.49614C42.0676 3.42535 41.8452 3.39622 41.6234 3.41042C41.4016 3.42463 41.1848 3.48188 40.9856 3.57889L33.9243 7.02972L28.3981 1.04484C27.7717 0.366775 26.7045 0.314723 26.0118 0.927357L10.5488 14.636H7.73918C3.46985 14.636 0 18.0566 0 22.2638V49.8764C0 54.0795 3.46992 57.5 7.73918 57.5H47.0765C51.3413 57.5 54.8123 54.0794 54.8123 49.8764V46.8602C54.852 46.8428 54.883 46.8123 54.9182 46.7905C54.9668 46.7645 55.0065 46.7297 55.0505 46.6993C55.1564 46.6254 55.2578 46.5515 55.3461 46.4558C55.4518 46.343 55.5313 46.2168 55.6018 46.0777C55.6197 46.0472 55.6372 46.0212 55.646 45.9907C55.6813 45.9126 55.7386 45.8516 55.7607 45.7691C56.5721 42.8788 57 39.5539 57 36.1462C57 32.6517 56.5502 29.253 55.7034 26.3191Z" fill="#27323A"/>
<path d="M40.9678 7.31233C41.6954 8.76389 43.4685 12.3107 44.6329 14.6359H25.9723C31.5779 11.8976 39.3183 8.11633 40.9678 7.31233ZM27.0261 4.51746C27.9303 5.49549 29.5665 7.26887 30.7663 8.56823L18.4611 14.5794C18.4346 14.5945 18.4169 14.6228 18.3861 14.6359H15.6162C19.4048 11.2761 25.5841 5.7997 27.0261 4.51746Z" fill="#79CCBF"/>
<path d="M47.0762 54.162H7.73883C5.34401 54.162 3.38574 52.2408 3.38574 49.8764V22.2638C3.38574 19.8994 5.34401 17.974 7.73883 17.974H47.0762C48.3993 17.974 49.5723 18.5737 50.3706 19.4952H8.49758C6.53931 19.4952 4.94276 21.0643 4.94276 22.9941V48.9464C4.94276 50.8805 6.53931 52.4496 8.49758 52.4496H50.5338C49.7356 53.484 48.4918 54.162 47.0762 54.162Z" fill="#F4CE73"/>
<path d="M51.4239 49.8765C51.4239 49.9982 51.3975 50.107 51.3887 50.2243H8.49685C7.78234 50.2243 7.2002 49.6506 7.2002 48.9465V22.9943C7.2002 22.2944 7.78234 21.7207 8.49685 21.7207H51.3711C51.3933 21.899 51.4239 22.0772 51.4239 22.2639V25.3064C49.082 25.6498 46.4887 26.4322 44.5833 27.7058H41.1608C36.4857 27.7058 32.6838 31.4566 32.6838 36.0638C32.6838 40.671 36.4857 44.422 41.1608 44.422H44.5833C46.4799 45.6866 49.0644 46.4604 51.4239 46.8124V49.8765Z" fill="#F4CE73"/>
<path d="M52.7919 43.6352C50.2206 43.4004 47.4552 42.5267 46.079 41.4488C45.7791 41.2098 45.4088 41.0838 45.0252 41.0838H41.1615C38.3564 41.0838 36.0718 38.8324 36.0718 36.0636C36.0718 33.2951 38.3564 31.0437 41.1615 31.0437H45.0252C45.4088 31.0437 45.7792 30.9175 46.079 30.6827C47.4861 29.5745 50.1986 28.7095 52.7522 28.4923C53.3079 30.8349 53.6124 33.4428 53.6124 36.1462C53.6124 38.7801 53.3212 41.3315 52.7919 43.6352Z" fill="white"/>
<path d="M43.2477 36.0682C43.2477 37.5936 41.9908 38.8325 40.4429 38.8325C38.8992 38.8325 37.6421 37.5936 37.6421 36.0682C37.6421 34.547 38.8992 33.3081 40.4429 33.3081C41.9909 33.308 43.2477 34.5469 43.2477 36.0682Z" fill="#27323A"/>
</svg>
