<svg width="49" height="49" viewBox="0 0 49 49" fill="none" xmlns="http://www.w3.org/2000/svg">
<g clip-path="url(#clip0_1_7)">
<path d="M41.3555 0H7.64446C3.42221 0 0 3.42221 0 7.64446V41.3555C0 45.5778 3.42221 49 7.64446 49H41.3555C45.5778 49 49 45.5778 49 41.3555V7.64446C49 3.42221 45.5778 0 41.3555 0Z" fill="url(#paint0_linear_1_7)"/>
<path d="M19.7627 6.55143C19.4898 5.97884 18.782 5.76746 18.2402 6.09657C15.1177 7.99497 13.0387 11.2821 12.6654 14.909C12.5998 15.5391 13.0975 16.0876 13.7303 16.0876C14.2748 16.0876 14.7377 15.6796 14.7926 15.1377C15.0949 12.1664 16.7994 9.47196 19.36 7.92005C19.8282 7.63777 19.9968 7.04376 19.7627 6.55143Z" fill="url(#paint1_linear_1_7)"/>
<path d="M35.9065 14.909C35.5332 11.2821 33.4542 7.99496 30.3317 6.09656C29.7898 5.76745 29.0821 5.98017 28.8092 6.55143C28.5751 7.04242 28.745 7.63642 29.2106 7.92005C31.7712 9.47329 33.4756 12.1664 33.778 15.1377C33.8328 15.6796 34.2957 16.0876 34.8402 16.0876C35.4757 16.0876 35.972 15.5391 35.9065 14.909Z" fill="url(#paint2_linear_1_7)"/>
<path d="M19.3426 25.6532V16.0876C19.3426 13.3611 21.5607 11.1429 24.2873 11.1429C27.0138 11.1429 29.232 13.3611 29.232 16.0876V25.6532H31.8194V16.0876C31.8194 11.9336 28.4413 8.5542 24.2873 8.5542C20.1333 8.5542 16.7539 11.9336 16.7539 16.0876V25.6532H19.3426Z" fill="url(#paint3_linear_1_7)"/>
<path d="M32.7666 24.2003H25.2612C25.2599 24.2017 25.2599 24.2017 25.2586 24.203C25.2826 25.0057 25.2719 25.8071 25.1836 26.6111C25.1676 26.765 25.1489 26.9215 25.1221 27.078H32.4896C32.9833 27.078 33.386 27.478 33.386 27.9717C33.386 28.2192 33.2856 28.444 33.1224 28.6058C32.9605 28.7677 32.7371 28.8681 32.4896 28.8681H24.3314C24.3274 28.8694 24.3207 28.8694 24.3167 28.8694C24.3073 28.8694 24.298 28.8694 24.2886 28.8681H24.2873C24.1535 28.8641 24.0545 28.7878 24.001 28.6928C23.8083 28.3463 23.6919 27.9985 23.601 27.652C23.5086 27.3055 23.4538 26.9576 23.419 26.6125C23.3307 25.8097 23.32 25.0084 23.3441 24.2043C23.3428 24.203 23.3428 24.203 23.3414 24.2017H16.2361C13.8119 24.2017 11.8466 26.167 11.8466 28.5911V34.6944C11.8466 37.1186 13.8119 39.0839 16.2361 39.0839H24.3154C24.6686 39.0839 25.0097 39.2003 25.2893 39.4143L29.8126 42.8834C30.3691 43.3101 31.1718 42.9141 31.1718 42.2144V40.6839C31.1718 39.7996 31.8876 39.0839 32.7719 39.0839C33.9827 39.0839 35.0797 38.5929 35.8744 37.7982C36.6691 37.0035 37.16 35.9065 37.16 34.6944V28.5898C37.156 26.1656 35.1907 24.2003 32.7666 24.2003ZM21.8297 36.3614C21.6664 36.5246 21.443 36.6249 21.1955 36.6249H16.7552C16.2615 36.6249 15.8588 36.2236 15.8588 35.7285C15.8588 35.481 15.9592 35.2576 16.1224 35.0957C16.2843 34.9339 16.5077 34.8335 16.7552 34.8335H21.1955C21.6892 34.8335 22.0919 35.2335 22.0919 35.7272C22.0919 35.976 21.9915 36.1995 21.8297 36.3614ZM33.1211 32.5458C32.9592 32.7077 32.7358 32.808 32.4883 32.808H16.7552C16.2602 32.808 15.8588 32.408 15.8588 31.9143C15.8588 31.6668 15.9592 31.4421 16.1211 31.2802C16.2829 31.1183 16.5064 31.018 16.7552 31.018H32.4883C32.9819 31.018 33.3846 31.418 33.3846 31.9143C33.3846 32.1605 33.2843 32.3839 33.1211 32.5458Z" fill="white"/>
<path d="M26.381 18.7058C26.3409 18.8998 26.2606 19.0857 26.1589 19.257C26.1054 19.3399 26.0492 19.4202 25.985 19.4938C25.9529 19.5299 25.9195 19.566 25.8847 19.5995L25.8338 19.6503L25.8084 19.6744L25.0378 20.3794L24.6485 20.7299L24.4532 20.9039L24.405 20.948C24.401 20.952 24.401 20.9534 24.3997 20.9574C24.3956 20.9601 24.389 20.9627 24.3876 20.9694C24.3622 20.9975 24.3515 21.039 24.3595 21.0858C24.3635 21.1072 24.3729 21.1259 24.3849 21.1407C24.389 21.15 24.397 21.1554 24.405 21.1647C24.4077 21.1661 24.4104 21.1674 24.4117 21.1701L24.4144 21.1728L24.4625 21.2076C24.5348 21.2571 24.6017 21.3119 24.6672 21.3721C24.9241 21.6102 25.1167 21.9166 25.2198 22.2497C25.2733 22.417 25.3027 22.5909 25.3094 22.7662C25.3121 22.8732 25.3094 22.8879 25.3094 22.9387L25.3081 23.0685C25.3027 23.415 25.2505 23.6184 25.2599 24.203H23.3374C23.3468 23.6197 23.2946 23.4163 23.2892 23.0685L23.2879 22.9387C23.2866 22.916 23.2866 22.8812 23.2866 22.8611L23.2384 22.8277L23.1407 22.7554C23.0136 22.6551 22.8973 22.5387 22.7956 22.4116C22.5896 22.1561 22.4451 21.8537 22.3728 21.538C22.2992 21.2223 22.2979 20.8905 22.3701 20.5721C22.4411 20.255 22.5869 19.9486 22.7902 19.6945C22.8397 19.6289 22.8946 19.5714 22.9521 19.5138L23.0377 19.4296L23.0859 19.3854L23.2772 19.2115L23.6612 18.865L24.207 18.366C24.0639 18.2857 23.9301 18.1867 23.8164 18.0703C23.5367 17.792 23.3535 17.4228 23.2986 17.0335C23.2933 16.9853 23.2852 16.9345 23.2839 16.8863L23.2812 16.8127L23.2799 16.7579L23.2812 16.6281L23.2826 16.3672L23.2866 14.137C23.2892 13.5778 23.7441 13.127 24.3047 13.1296C24.8612 13.1323 25.3094 13.5832 25.3121 14.137L25.3161 16.3672L25.3174 16.6228C25.3709 16.6442 25.4244 16.6682 25.4766 16.699C25.8218 16.8876 26.1134 17.1994 26.2673 17.5579C26.4252 17.9138 26.4706 18.3178 26.381 18.7058Z" fill="white"/>
</g>
<defs>
<linearGradient id="paint0_linear_1_7" x1="5.20997" y1="5.52492" x2="43.6876" y2="43.3744" gradientUnits="userSpaceOnUse">
<stop stop-color="#14DCFE"/>
<stop offset="1" stop-color="#1465FF"/>
</linearGradient>
<linearGradient id="paint1_linear_1_7" x1="16.2643" y1="7.91517" x2="16.2643" y2="23.6904" gradientUnits="userSpaceOnUse">
<stop stop-color="white"/>
<stop offset="1" stop-color="white" stop-opacity="0"/>
</linearGradient>
<linearGradient id="paint2_linear_1_7" x1="32.3093" y1="7.91516" x2="32.3093" y2="23.6904" gradientUnits="userSpaceOnUse">
<stop stop-color="white"/>
<stop offset="1" stop-color="white" stop-opacity="0"/>
</linearGradient>
<linearGradient id="paint3_linear_1_7" x1="24.2861" y1="16.9431" x2="24.2861" y2="28.0228" gradientUnits="userSpaceOnUse">
<stop stop-color="white"/>
<stop offset="1" stop-color="white" stop-opacity="0"/>
</linearGradient>
<clipPath id="clip0_1_7">
<rect width="49" height="49" fill="white"/>
</clipPath>
</defs>
</svg>
