<svg width="44" height="44" viewBox="0 0 44 44" fill="none" xmlns="http://www.w3.org/2000/svg">
<path d="M12 4.67564C14.9417 2.97394 18.3572 2 22 2C33.0456 2 42 10.9543 42 22C42 33.0456 33.0456 42 22 42C10.9543 42 2 33.0456 2 22C2 18.3572 2.97394 14.9417 4.67564 12M14 17C14 16.0681 14 15.6022 14.1522 15.2346C14.3552 14.7446 14.7446 14.3552 15.2346 14.1522C15.6022 14 16.0681 14 17 14C17.9319 14 18.3978 14 18.7654 14.1522C19.2554 14.3552 19.6448 14.7446 19.8478 15.2346C20 15.6022 20 16.0681 20 17V27C20 27.9318 20 28.3978 19.8478 28.7654C19.6448 29.2554 19.2554 29.6448 18.7654 29.8478C18.3978 30 17.9319 30 17 30C16.0681 30 15.6022 30 15.2346 29.8478C14.7446 29.6448 14.3552 29.2554 14.1522 28.7654C14 28.3978 14 27.9318 14 27V17ZM24 17C24 16.0681 24 15.6022 24.1522 15.2346C24.3552 14.7446 24.7446 14.3552 25.2346 14.1522C25.6022 14 26.0682 14 27 14C27.9318 14 28.3978 14 28.7654 14.1522C29.2554 14.3552 29.6448 14.7446 29.8478 15.2346C30 15.6022 30 16.0681 30 17V27C30 27.9318 30 28.3978 29.8478 28.7654C29.6448 29.2554 29.2554 29.6448 28.7654 29.8478C28.3978 30 27.9318 30 27 30C26.0682 30 25.6022 30 25.2346 29.8478C24.7446 29.6448 24.3552 29.2554 24.1522 28.7654C24 28.3978 24 27.9318 24 27V17Z" stroke="url(#paint0_linear_1_139)" stroke-width="2.5" stroke-linecap="round"/>
<defs>
<linearGradient id="paint0_linear_1_139" x1="6.25303" y1="6.51014" x2="37.6634" y2="37.4076" gradientUnits="userSpaceOnUse">
<stop stop-color="#14DCFE"/>
<stop offset="1" stop-color="#1465FF"/>
</linearGradient>
</defs>
</svg>
