<svg width="18" height="18" viewBox="0 0 18 18" fill="none" xmlns="http://www.w3.org/2000/svg">
<path fill-rule="evenodd" clip-rule="evenodd" d="M9.00053 0C4.03034 0 0 4.02928 0 9.00053C0 12.6848 2.21627 15.8515 5.38826 17.2432C5.36285 16.6156 5.38402 15.8599 5.54384 15.1762C5.71741 14.4459 6.70171 10.2727 6.70171 10.2727C6.70171 10.2727 6.41488 9.69801 6.41488 8.84813C6.41488 7.51456 7.18857 6.51861 8.15064 6.51861C8.96878 6.51861 9.36462 7.13353 9.36462 7.87017C9.36462 8.69254 8.83966 9.92344 8.56977 11.0633C8.34433 12.019 9.04815 12.797 9.99012 12.797C11.6952 12.797 12.8435 10.6072 12.8435 8.012C12.8435 6.04022 11.5153 4.56377 9.09896 4.56377C6.36938 4.56377 4.66855 6.59905 4.66855 8.87247C4.66855 9.65779 4.89928 10.2103 5.26125 10.6379C5.42847 10.8358 5.4507 10.9141 5.39037 11.1406C5.34804 11.3046 5.24854 11.7047 5.20727 11.8624C5.14694 12.09 4.96278 12.1725 4.75746 12.0878C3.49903 11.5745 2.91375 10.1976 2.91375 8.64915C2.91375 6.09314 5.06968 3.02593 9.34557 3.02593C12.7822 3.02593 15.0439 5.5142 15.0439 8.1824C15.0439 11.7132 13.0817 14.3507 10.187 14.3507C9.21644 14.3507 8.30199 13.8257 7.98871 13.2299C7.98871 13.2299 7.46587 15.3032 7.35579 15.7033C7.16528 16.3965 6.79167 17.0908 6.44981 17.6306C7.25948 17.8698 8.11466 18 9.00053 18C13.9707 18 18 13.9707 18 9.00053C18 4.02928 13.9707 0 9.00053 0Z" fill="#0D0C22"/>
</svg>
