<svg width="26" height="26" viewBox="0 0 26 26" fill="none" xmlns="http://www.w3.org/2000/svg">
<path d="M15.0764 10.7283C16.2588 11.6928 16.85 12.1751 16.85 13C16.85 13.8249 16.2588 14.3071 15.0764 15.2717C14.75 15.538 14.4263 15.7887 14.1287 15.9976C13.8677 16.1808 13.5721 16.3704 13.2661 16.5565C12.0865 17.2738 11.4966 17.6325 10.9676 17.2354C10.4387 16.8383 10.3906 16.0069 10.2944 14.3444C10.2672 13.8741 10.25 13.4132 10.25 13C10.25 12.5867 10.2672 12.1258 10.2944 11.6556C10.3906 9.99297 10.4387 9.16165 10.9676 8.76453C11.4966 8.36742 12.0865 8.7261 13.2661 9.44344C13.5721 9.62954 13.8677 9.81912 14.1287 10.0024C14.4263 10.2113 14.75 10.462 15.0764 10.7283Z" stroke="white" stroke-width="2.2"/>
<path d="M7.5 3.4716C9.11796 2.53567 10.9965 2 13 2C19.0751 2 24 6.92487 24 13C24 19.0751 19.0751 24 13 24C6.92487 24 2 19.0751 2 13C2 10.9965 2.53567 9.11796 3.4716 7.5" stroke="white" stroke-width="2.2" stroke-linecap="round"/>
</svg>
