<svg width="44" height="44" viewBox="0 0 44 44" fill="none" xmlns="http://www.w3.org/2000/svg">
<path d="M22 42C33.0457 42 42 33.0457 42 22C42 10.9543 33.0457 2 22 2C10.9543 2 2 10.9543 2 22C2 33.0457 10.9543 42 22 42Z" stroke="#424A5E" stroke-opacity="0.5" stroke-width="2.5" stroke-linecap="round"/>
<path d="M25.7752 17.8696C27.925 19.6234 29 20.5002 29 22C29 23.4998 27.925 24.3766 25.7752 26.1304C25.1818 26.6146 24.5932 27.0704 24.0522 27.4502C23.5776 27.7834 23.0402 28.128 22.4838 28.4664C20.339 29.7706 19.2666 30.4228 18.3048 29.7008C17.343 28.9788 17.2556 27.4672 17.0808 24.4444C17.0313 23.5894 17 22.7514 17 22C17 21.2486 17.0313 20.4106 17.0808 19.5556C17.2556 16.5327 17.343 15.0212 18.3048 14.2992C19.2666 13.5772 20.339 14.2293 22.4838 15.5336C23.0402 15.8719 23.5776 16.2166 24.0522 16.5498C24.5932 16.9297 25.1818 17.3855 25.7752 17.8696Z" stroke="#424A5E" stroke-opacity="0.5" stroke-width="2.5" stroke-linecap="round"/>
</svg>
