<svg width="40" height="41" viewBox="0 0 40 41" fill="none" xmlns="http://www.w3.org/2000/svg">
<path fill-rule="evenodd" clip-rule="evenodd" d="M20 40.9645C31.0456 40.9645 40 32.0101 40 20.9645C40 9.91878 31.0456 0.964478 20 0.964478C8.9543 0.964478 0 9.91878 0 20.9645C0 32.0101 8.9543 40.9645 20 40.9645ZM17.7226 15.6912L17.4604 16.1615C17.1724 16.678 17.0284 16.9363 16.804 17.1067C16.5794 17.2771 16.2998 17.3405 15.7407 17.4669L15.2316 17.5821C13.2639 18.0273 12.28 18.2499 12.0459 19.0027C11.8119 19.7555 12.4826 20.5397 13.8241 22.1085L14.1711 22.5143C14.5523 22.9601 14.7429 23.1829 14.8287 23.4587C14.9144 23.7345 14.8856 24.0317 14.828 24.6265L14.7755 25.1681C14.5727 27.2609 14.4713 28.3075 15.0841 28.7727C15.6969 29.2379 16.6182 28.8137 18.4606 27.9655L18.9372 27.7459C19.4608 27.5049 19.7226 27.3843 20 27.3843C20.2774 27.3843 20.5392 27.5049 21.0628 27.7459L21.5394 27.9655C23.3818 28.8137 24.303 29.2379 24.9158 28.7727C25.5288 28.3075 25.4272 27.2609 25.2244 25.1681L25.172 24.6265C25.1144 24.0317 25.0856 23.7345 25.1714 23.4587C25.257 23.1829 25.4476 22.9601 25.8288 22.5143L26.176 22.1085C27.5174 20.5397 28.1882 19.7555 27.954 19.0027C27.72 18.2499 26.7362 18.0273 24.7684 17.5821L24.2592 17.4669C23.7002 17.3405 23.4206 17.2771 23.196 17.1067C22.9716 16.9363 22.8276 16.678 22.5396 16.1615L22.2774 15.6912C21.2642 13.8734 20.7574 12.9645 20 12.9645C19.2426 12.9645 18.7358 13.8734 17.7226 15.6912Z" fill="white"/>
</svg>
