<svg width="40" height="40" viewBox="0 0 40 40" fill="none" xmlns="http://www.w3.org/2000/svg">
<g clip-path="url(#clip0_5_80)">
<path d="M24.207 33.6975H20.2812C19.6686 33.6975 19.168 33.2035 19.168 32.5843V28.6651C19.168 28.3753 19.2866 28.0921 19.4908 27.8746L27.1975 20.168V3.34499C27.1975 2.73242 26.7035 2.23183 26.0843 2.23183H8.61574V7.50797C8.61574 8.12054 8.12177 8.62113 7.50258 8.62113H2.22644V36.6683C2.22644 37.2808 2.72041 37.7814 3.3396 37.7814H26.104C26.7165 37.7814 27.2171 37.2874 27.2171 36.6683V31.1747L25.0039 33.3747C24.7931 33.5789 24.5099 33.6975 24.207 33.6975Z" fill="white"/>
<path d="M7.49596 8.62113H4.5516L4.27497 34.3298C4.26835 34.9424 4.76242 35.4496 5.36836 35.4563L23.6866 35.6604C24.2992 35.6671 24.8064 35.173 24.813 34.5671L24.8196 33.5197C24.6418 33.6448 24.4179 33.7108 24.2004 33.7108H20.2747C19.6621 33.7108 19.1615 33.2168 19.1615 32.5976V28.6718C19.1615 28.382 19.2801 28.0988 19.4843 27.8813L24.9382 22.4274L25.1293 5.69002C25.1359 5.07745 24.6418 4.57023 24.0359 4.56361L8.59598 4.40548V7.51449C8.61574 8.12054 8.10853 8.62113 7.49596 8.62113Z" fill="#56ACE0"/>
<path d="M21.5853 8.52229H12.3505C11.7379 8.52229 11.2373 8.02833 11.2373 7.40913C11.2373 6.79656 11.7313 6.29597 12.3505 6.29597H21.5853C22.1979 6.29597 22.6985 6.78994 22.6985 7.40913C22.6986 8.02833 22.2045 8.52229 21.5853 8.52229Z" fill="#424A5D"/>
<path d="M21.5853 14.8129H7.83838C7.22581 14.8129 6.72522 14.3189 6.72522 13.6997C6.72522 13.0805 7.21919 12.5865 7.83838 12.5865H21.5919C22.2045 12.5865 22.705 13.0805 22.705 13.6997C22.6985 14.3188 22.2045 14.8129 21.5853 14.8129Z" fill="#424A5D"/>
<path d="M21.5853 21.1033H7.83838C7.22581 21.1033 6.72522 20.6094 6.72522 19.9902C6.72522 19.371 7.21919 18.877 7.83838 18.877H21.5919C22.2045 18.877 22.705 19.371 22.705 19.9902C22.705 20.6093 22.2045 21.1033 21.5853 21.1033Z" fill="#424A5D"/>
<path d="M15.5649 27.407H7.83851C7.22593 27.407 6.72534 26.9131 6.72534 26.2939C6.72534 25.6813 7.21931 25.1807 7.83851 25.1807H15.5649C16.1775 25.1807 16.6781 25.6747 16.6781 26.2939C16.6781 26.913 16.1775 27.407 15.5649 27.407Z" fill="#424A5D"/>
<path d="M15.5649 33.6975H7.83851C7.22593 33.6975 6.72534 33.2035 6.72534 32.5843C6.72534 31.9652 7.21931 31.4712 7.83851 31.4712H15.5649C16.1775 31.4712 16.6781 31.9652 16.6781 32.5843C16.6781 33.2035 16.1775 33.6975 15.5649 33.6975Z" fill="#424A5D"/>
<path d="M39.1724 15.2804L37.5981 13.7061C36.3861 12.6127 34.8513 12.6192 33.6723 13.7061L29.4303 17.9482V3.34499C29.4303 1.50728 27.935 0.0120239 26.0973 0.0120239H8.42468C7.53548 0.0120239 6.69233 0.361104 6.05999 0.98692L0.974896 6.07201C0.342559 6.70435 0 7.53426 0 8.42346V36.655C0 38.4927 1.49526 39.988 3.33297 39.988H26.0973C27.935 39.988 29.4303 38.4927 29.4303 36.655V28.9484L39.1723 19.2063C40.3054 18.0339 40.2461 16.3213 39.1724 15.2804ZM6.38268 3.80605V6.3947H3.79403L6.38268 3.80605ZM27.2106 36.6616C27.2106 37.2742 26.7166 37.7748 26.0974 37.7748H3.33297C2.7204 37.7748 2.21981 37.2808 2.21981 36.6616V8.62113H7.49594C8.10851 8.62113 8.60911 8.12716 8.60911 7.50797V2.23183H26.0973C26.7099 2.23183 27.2105 2.7258 27.2105 3.34499V20.168L19.5104 27.8746C19.3062 28.0788 19.1876 28.3621 19.1876 28.6651V32.5909C19.1876 33.2034 19.6815 33.704 20.3007 33.704H24.2265C24.5163 33.704 24.7995 33.5854 25.017 33.3812L27.2236 31.1746L27.2106 36.6616ZM23.7524 31.4777H21.4009V29.1262L32.2429 18.2775L34.5945 20.629L23.7524 31.4777ZM37.5981 17.632L36.1753 19.0548L33.8238 16.7033L35.2466 15.2804C35.5298 15.0499 35.7867 15.0763 36.037 15.2804L37.6047 16.8481C37.8023 16.993 37.8418 17.4344 37.5981 17.632Z" fill="#424A5D"/>
<path d="M6.38272 3.80605L3.79407 6.3947H6.38272V3.80605Z" fill="#FFC10D"/>
<path d="M21.4009 29.1196V31.4777H23.7524L34.6011 20.6356L32.2429 18.2776L21.4009 29.1196Z" fill="#FFC10D"/>
<path d="M36.0304 15.2804C35.7867 15.0763 35.5232 15.0499 35.2399 15.2804L33.8171 16.7033L36.1687 19.0548L37.5915 17.632C37.8352 17.4344 37.7957 16.993 37.5915 16.8415L36.0304 15.2804Z" fill="white"/>
</g>
<defs>
<clipPath id="clip0_5_80">
<rect width="40" height="40" fill="white"/>
</clipPath>
</defs>
</svg>
