<svg width="58" height="42" viewBox="0 0 58 42" fill="none" xmlns="http://www.w3.org/2000/svg">
<path d="M56.8118 6.23917L53.8361 3.39131C52.4069 2.02366 50.0891 2.00763 48.6641 3.36935L44.6469 7.2138C43.995 5.34077 42.1678 3.97701 39.9903 3.97701H27.0312C25.7737 3.97701 23.1146 0.0744629 18.7639 0.0744629H4.92892C2.21284 0.0744629 6.95887e-08 2.18819 0 4.79127V36.3625C0 38.9094 2.12484 40.9791 4.76112 41.0672C4.79483 41.0672 4.82397 41.0832 4.8618 41.0832H48.7102C51.4304 41.0832 53.6432 38.9656 53.6432 36.3625V14.2408L56.837 11.1845C58.2577 9.82678 58.2452 7.61078 56.8118 6.23917Z" fill="#27323A"/>
<path d="M50.383 13.0956L36.42 26.4617L32.8658 26.3094L32.7065 22.9083L46.6694 9.54395L50.383 13.0956Z" fill="#79CCBF"/>
<path d="M26.6626 32.2675C26.3944 32.0108 25.9585 31.9747 25.4683 32.0749C26.6125 29.1952 28.3852 25.4509 28.4607 25.1984L28.5571 25.1021C29.1774 25.1702 29.8605 25.2425 30.2 25.2746L30.2253 25.3027L30.3173 28.75L33.9177 28.8301L33.926 28.8382C33.9874 29.3666 34.0517 29.8947 34.1188 30.4225L34.0182 30.5149C33.7709 30.587 29.8689 32.3118 26.8723 33.4186C26.9727 32.9452 26.9309 32.5242 26.6626 32.2675Z" fill="white"/>
<path d="M5.96356 17.4875V36.4067C5.96356 37.2369 5.61977 37.9347 4.56355 37.9427C3.6333 37.9348 3.21826 37.261 3.21826 36.3626V4.79122C3.21826 3.88866 3.98521 3.15479 4.92835 3.15479H18.7633C20.444 3.15479 21.8818 4.27785 23.1517 5.26646C24.3272 6.18709 25.4463 7.05733 27.0306 7.05733H39.9896C40.9328 7.05733 41.6997 7.79127 41.6997 8.69383V9.41979H30.2957C27.718 9.41979 25.5133 12.769 24.5537 12.769H10.8965C8.18067 12.7689 5.96356 14.8845 5.96356 17.4875Z" fill="#79CCBF"/>
<path d="M50.4242 36.3625C50.4242 37.269 49.6532 38.0029 48.71 38.0029H8.92725C9.0193 37.5298 9.18282 37.1125 9.18282 36.5632V17.4875C9.18282 16.5851 9.95404 15.8492 10.897 15.8492H24.5541C26.1803 15.8492 27.2656 14.8865 28.3219 13.9519C28.8249 13.5067 29.8684 12.5803 30.3296 12.5H39.1248L27.2238 23.8909L27.2322 23.9108L27.0268 24.1073C26.9815 24.1454 26.9494 24.1958 26.9348 24.2518L22.4438 35.6926C22.4187 35.7527 22.4355 35.8209 22.4438 35.8891C22.4606 36.0056 22.4941 36.1138 22.582 36.2021C22.6576 36.2662 22.7539 36.3144 22.8586 36.3304C22.9426 36.3586 23.0348 36.3704 23.1185 36.3384L35.0153 31.9785C35.0698 31.9666 35.1201 31.9304 35.1662 31.8984L35.3672 31.7099H35.3967L50.4242 17.3229V36.3625Z" fill="#F4CE73"/>
<path d="M52.5836 10.9919L48.8701 7.44234L50.8946 5.50317L54.6037 9.05273L52.5836 10.9919Z" fill="white"/>
</svg>
