<svg width="18" height="14" viewBox="0 0 18 14" fill="none" xmlns="http://www.w3.org/2000/svg">
<path d="M18 1.66066C17.3381 1.94129 16.627 2.1309 15.8794 2.21661C16.6508 1.77503 17.2278 1.08003 17.503 0.261303C16.7783 0.673137 15.9851 0.963024 15.158 1.11836C14.6018 0.550172 13.8651 0.173569 13.0623 0.0470186C12.2594 -0.0795317 11.4354 0.0510517 10.7181 0.418495C10.0007 0.785938 9.43028 1.36968 9.09525 2.0791C8.76022 2.78852 8.67936 3.58391 8.86523 4.3418C7.39684 4.27122 5.96036 3.90604 4.64901 3.26997C3.33766 2.63389 2.18074 1.74114 1.25332 0.649633C0.936228 1.17297 0.753898 1.77973 0.753898 2.42594C0.753544 3.00767 0.903276 3.5805 1.18981 4.09358C1.47634 4.60667 1.89082 5.04416 2.39646 5.36724C1.81006 5.3493 1.23661 5.1977 0.723773 4.92506V4.97056C0.723714 5.78647 1.0187 6.57726 1.55868 7.20877C2.09865 7.84027 2.85036 8.27359 3.68625 8.4352C3.14222 8.57584 2.57194 8.59659 2.01832 8.49587C2.25406 9.19797 2.71342 9.81194 3.33208 10.2518C3.95073 10.6916 4.69769 10.9353 5.46833 10.9487C4.16012 11.9311 2.54459 12.4641 0.881529 12.4618C0.586957 12.4611 0.292657 12.4446 0 12.4125C1.68859 13.45 3.65338 14.0011 5.66018 14C12.454 14 16.168 8.61647 16.168 3.94741C16.168 3.79521 16.1643 3.64301 16.1569 3.49081C16.879 2.9906 17.5025 2.37171 17.9984 1.66293L18 1.66066Z" fill="#0D0C22"/>
</svg>
