<svg width="48" height="41" viewBox="0 0 48 41" fill="none" xmlns="http://www.w3.org/2000/svg">
<path fill-rule="evenodd" clip-rule="evenodd" d="M31.7079 7.47499H16.2921C8.47492 7.47499 4.5663 7.47499 2.37075 9.76083C0.175209 12.0467 0.691777 15.5783 1.72494 22.6413L2.70468 29.3392C3.51489 34.878 3.91999 37.6475 5.99819 39.306C8.07639 40.9645 11.1415 40.9645 17.2718 40.9645H30.7281C36.8585 40.9645 39.9237 40.9645 42.0019 39.306C44.0802 37.6475 44.4851 34.878 45.2953 29.3392L46.2751 22.6413C47.3082 15.5783 47.8248 12.0466 45.6293 9.76083C43.4337 7.47499 39.5251 7.47499 31.7079 7.47499ZM29.979 26.5899C31.2724 25.788 31.2724 23.7123 29.979 22.9104L22.1692 18.069C20.9121 17.2898 19.3673 18.3041 19.3673 19.9087V29.5917C19.3673 31.1962 20.9121 32.2105 22.1692 31.4313L29.979 26.5899Z" fill="white"/>
<path d="M10.8205 0.944458C7.59934 0.944458 4.95809 2.88961 4.07665 5.4701C4.05828 5.52389 4.04067 5.57798 4.02384 5.63229C4.94609 5.35301 5.90589 5.17056 6.87752 5.04601C9.38003 4.72517 12.5426 4.72533 16.2164 4.72554H32.1809C35.8546 4.72533 39.0173 4.72517 41.5197 5.04601C42.4914 5.17056 43.4513 5.35301 44.3734 5.63229C44.3567 5.57798 44.3389 5.52389 44.3206 5.4701C43.4392 2.88961 40.7979 0.944458 37.5768 0.944458H10.8205Z" fill="white"/>
</svg>
